Coordinates
version=1
nRows=17
nColumns=34
inDegrees=yes

Units are S.I. units (second, meters, Newtons, ...)
If the header above contains a line with 'inDegrees', this indicates whether rotational values are in degrees (yes) or radians (no).

endheader
time	pelvis_tilt	pelvis_list	pelvis_rotation	pelvis_tx	pelvis_ty	pelvis_tz	hip_flexion_r	hip_adduction_r	hip_rotation_r	knee_angle_r	ankle_angle_r	subtalar_angle_r	mtp_angle_r	hip_flexion_l	hip_adduction_l	hip_rotation_l	knee_angle_l	ankle_angle_l	subtalar_angle_l	mtp_angle_l	lumbar_extension	lumbar_bending	lumbar_rotation	arm_flex_r	arm_add_r	arm_rot_r	elbow_flex_r	pro_sup_r	arm_flex_l	arm_add_l	arm_rot_l	elbow_flex_l	pro_sup_l
      2.68333330	    -45.38712943	      2.93912395	     -2.48424989	      0.29890127	      0.61839252	     -0.04662977	    107.63015915	    -12.29891224	     -0.00741209	     89.51440982	     31.66880963	     -3.54988379	      0.00000000	    108.64929748	    -13.52198416	     -2.23763320	     90.84368796	     30.42918702	      3.21843264	      0.00000000	    -20.47689897	     -1.79153735	     -0.75606170	    118.61760623	     16.11912171	     61.83954822	    124.33028329	     87.62721225	    131.88977474	     12.84000835	     68.93511229	    124.28196024	     69.30803908
      2.70000000	    -45.75904561	      2.71672540	     -2.18190644	      0.29860318	      0.60807562	     -0.04605118	    109.18986460	    -12.75603423	     -0.05659846	     91.29920525	     31.78695935	     -4.11116261	      0.00000000	    110.41780618	    -13.43212759	     -1.79618181	     92.52362636	     30.67751510	      3.45439525	      0.00000000	    -20.92398999	     -1.62290996	     -1.50749919	    119.62037410	     18.18841258	     67.40187467	    125.47444584	     87.55506010	    131.98234052	     12.15681193	     68.38936467	    123.69716332	     69.30770710
      2.71666670	    -46.23455027	      2.39255174	     -1.91392200	      0.30058035	      0.59772158	     -0.04458218	    110.61710571	    -13.11617958	     -0.17751947	     93.02258200	     32.47538408	     -4.08799001	      0.00000000	    112.13827596	    -13.47148009	     -1.28370117	     94.08452249	     31.18228934	      3.87236386	      0.00000000	    -21.13647714	     -1.33699088	     -1.39151405	    119.89808683	     18.97616188	     70.83658462	    125.86548827	     87.31093189	    131.78917563	     12.02480822	     67.61670688	    123.24854584	     69.25569959
      2.73333330	    -46.78313209	      2.08599991	     -1.68646527	      0.29793154	      0.58801474	     -0.04264835	    112.03936025	    -13.36135099	     -0.29129245	     94.36525616	     33.05276081	     -3.91115253	      0.00000000	    113.87231136	    -13.53061103	     -0.77829091	     95.59217175	     31.25473058	      4.05893771	      0.00000000	    -21.47188344	     -1.26465244	     -1.39606219	    120.29971847	     19.21142679	     71.87478312	    126.32040667	     87.17172751	    131.82315365	     12.08436269	     66.92817255	    122.64620439	     69.21246289
      2.75000000	    -47.20914837	      1.73526913	     -1.54627380	      0.29527729	      0.57620571	     -0.04160079	    113.44455354	    -13.62270350	     -0.53614143	     95.81211222	     33.80881253	     -3.87254259	      0.00000000	    115.66661064	    -13.64230169	     -0.22023936	     96.96970876	     31.52100230	      4.34585701	      0.00000000	    -21.79763995	     -1.08622811	     -1.35173440	    120.77839143	     19.18228795	     72.36386325	    126.40755670	     87.03061886	    131.93689396	     11.91994315	     66.34791821	    121.94423808	     69.18185732
      2.76666670	    -47.56457438	      1.32112519	     -1.30276123	      0.29124644	      0.56877668	     -0.04025540	    114.69216367	    -14.03066399	     -0.85094222	     97.12463580	     34.18383774	     -4.18601890	      0.00000000	    117.35849742	    -13.59596575	      0.25393054	     98.15341813	     31.40332751	      4.72464145	      0.00000000	    -22.32636841	     -0.81981734	     -1.15585120	    121.19422241	     18.52545414	     71.99877679	    126.58343055	     86.87625021	    131.79891847	     11.90988884	     65.75443435	    121.63536124	     69.18353294
      2.78333330	    -47.75151562	      0.91453727	     -1.02342001	      0.29094647	      0.55910259	     -0.04086710	    115.89647051	    -14.54094661	     -1.02520796	     98.49426433	     34.19471334	     -4.57211219	      0.00000000	    118.86607432	    -13.45804924	      0.71624295	     99.33696863	     31.48860513	      5.12117672	      0.00000000	    -22.82887359	     -0.51695178	     -1.10378547	    120.97449588	     18.10034096	     72.16663675	    126.95163030	     86.75342660	    131.36904668	     12.02803809	     65.05486881	    121.63595531	     69.22035924
      2.80000000	    -47.99861190	      0.52530144	     -0.79753531	      0.29629605	      0.55398398	     -0.04131176	    116.71148608	    -15.06502283	     -1.20814058	     99.75581607	     34.20086112	     -4.91438343	      0.00000000	    119.99999986	    -13.39456848	      1.07197458	    100.38011018	     31.53272022	      5.56047923	      0.00000000	    -23.01058978	     -0.17109038	     -0.42423925	    119.88258377	     17.03468322	     72.18945903	    127.67960552	     86.63829041	    129.46275269	     12.37800273	     64.78646568	    122.11504586	     69.36157130
      2.81666670	    -47.21243028	      0.44623352	     -0.32653663	      0.29140999	      0.54731423	     -0.04091145	    116.98638638	    -15.74990350	     -1.03518151	    101.14906441	     34.00825164	     -5.39825186	      0.00000000	    119.99999986	    -13.16077189	      0.95348041	    101.35378516	     31.58647241	      5.88373363	      0.00000000	    -24.52839383	     -0.15889260	     -0.79216411	    119.84370008	     16.42659827	     72.17504610	    127.53729512	     86.59449373	    129.15226029	     12.50101330	     64.48871719	    122.00660454	     69.45197573
      2.83333330	    -46.47500682	      0.38779744	      0.06193092	      0.29192143	      0.54232783	     -0.04372459	    117.38941907	    -16.48069882	     -0.76090661	    102.44214299	     33.82764851	     -5.88131734	      0.00000000	    119.99999986	    -12.83718771	      0.83201726	    102.30244390	     31.67845295	      6.10729888	      0.00000000	    -25.84276686	      0.15740112	     -0.92573916	    119.62823743	     16.32189078	     71.79442442	    127.80329344	     86.54480806	    129.05786745	     12.89120605	     64.14501337	    121.87739938	     69.57415531
      2.85000000	    -45.98242424	      0.41167589	      0.34302405	      0.28970223	      0.53954770	     -0.04569970	    117.68395704	    -17.02284360	     -0.50956915	    103.23339140	     33.45292044	     -6.19404396	      0.00000000	    119.99999986	    -12.53725805	      0.62888709	    102.83256928	     31.73276826	      6.34322916	      0.00000000	    -26.99295864	      0.36965131	     -1.20428545	    119.51137428	     16.42235453	     71.42999601	    128.07804901	     86.48434580	    129.34942668	     12.90183020	     63.54940133	    121.43758653	     69.72817771
      2.86666670	    -45.57601885	      0.36878198	      0.47582767	      0.29245307	      0.53704206	     -0.04581953	    117.73197767	    -17.37513638	     -0.42417167	    103.80545245	     33.46705668	     -6.25659752	      0.00000000	    119.99999986	    -12.43497931	      0.60053497	    103.38239103	     31.56157319	      6.34249486	      0.00000000	    -27.78742358	      0.46333862	     -1.30784319	    119.19038545	     16.38716499	     71.27848015	    128.70606356	     86.44994653	    129.05875788	     13.10083167	     63.45751928	    121.59739701	     69.92931697
      2.88333330	    -45.19301113	      0.39534084	      0.66612837	      0.28626348	      0.53495215	     -0.04522024	    117.88038122	    -17.59244706	     -0.22956487	    104.10958387	     33.12636224	     -6.46631660	      0.00000000	    119.99999986	    -12.22377153	      0.46406207	    103.63331947	     31.48156008	      6.31914408	      0.00000000	    -28.67598040	      0.42179037	     -1.50203726	    119.73823241	     16.27777253	     70.52403559	    128.88383985	     86.35331456	    129.72237713	     13.13947413	     62.74665472	    121.09007783	     70.24927597
      2.90000000	    -44.90199335	      0.27001777	      0.79752178	      0.28682680	      0.53568603	     -0.04563582	    117.92794546	    -17.68530643	     -0.22353297	    104.40463785	     32.79870460	     -6.97229250	      0.00000000	    119.99999986	    -12.02123588	      0.51855277	    103.66324673	     31.19267841	      6.17393081	      0.00000000	    -29.33145494	      0.59762468	     -1.44065990	    120.07795072	     15.82743228	     69.43912640	    129.13064760	     86.25045084	    130.15551561	     13.22488095	     62.40454643	    121.07542626	     70.58773696
      2.91666670	    -44.79657949	      0.29343357	      0.79384824	      0.28602737	      0.53531679	     -0.04652565	    117.94376625	    -17.65609905	     -0.24392787	    104.39654848	     32.79652358	     -6.97466359	      0.00000000	    119.99999986	    -11.98802368	      0.51096212	    103.60047162	     31.19675124	      6.18010615	      0.00000000	    -29.31611578	      0.59299602	     -1.44277375	    120.08110737	     15.83993263	     69.43969381	    129.13447288	     86.24996461	    130.16718043	     13.22685628	     62.39619168	    121.07102487	     70.59046473
      2.93333330	    -44.97579116	      0.20627580	      0.86342096	      0.28747441	      0.53831324	     -0.04690941	    117.71673658	    -17.55577925	     -0.17753717	    103.89585024	     32.69539853	     -6.97007382	      0.00000000	    119.99999986	    -11.81940680	      0.53677870	    103.21046218	     30.93116320	      6.34035255	      0.00000000	    -29.20069531	      0.75039018	     -1.60813581	    120.13756204	     16.32699355	     69.20331623	    129.49902798	     86.22809606	    130.69405496	     13.40453899	     61.90565659	    120.85362915	     70.76392970
      2.95000000	    -45.17492421	      0.09199969	      0.93234885	      0.28414220	      0.54065600	     -0.04441630	    117.53286681	    -17.41446365	     -0.30447406	    103.28803284	     32.66526257	     -7.06041924	      0.00000000	    119.99999986	    -11.72621274	      0.60752402	    102.77115300	     30.35739989	      6.13484771	      0.00000000	    -28.71334780	      0.73602554	     -1.45990980	    120.14216018	     16.67072278	     69.04231528	    129.42107572	     86.21050356	    130.94367959	     13.76723512	     61.80424728	    120.95243670	     70.91828879
